<mxfile host="65bd71144e">
    <diagram id="rBDZAw5bxclwOuO3ByKq" name="Page-1">
        <mxGraphModel dx="1070" dy="779" grid="1" gridSize="10" guides="1" tooltips="1" connect="1" arrows="1" fold="1" page="1" pageScale="1" pageWidth="827" pageHeight="1169" math="0" shadow="0">
            <root>
                <mxCell id="0"/>
                <mxCell id="1" parent="0"/>
                <mxCell id="2" value="ZK&lt;br&gt;/" style="ellipse;whiteSpace=wrap;html=1;aspect=fixed;flipV=1;" parent="1" vertex="1">
                    <mxGeometry x="302.5" y="145" width="80" height="80" as="geometry"/>
                </mxCell>
                <mxCell id="3" value="/lock" style="ellipse;whiteSpace=wrap;html=1;aspect=fixed;" parent="1" vertex="1">
                    <mxGeometry x="107.5" y="275" width="80" height="80" as="geometry"/>
                </mxCell>
                <mxCell id="4" value="/target" style="ellipse;whiteSpace=wrap;html=1;aspect=fixed;flipH=0;" parent="1" vertex="1">
                    <mxGeometry x="374" y="395" width="80" height="80" as="geometry"/>
                </mxCell>
                <mxCell id="5" value="/deepstream" style="ellipse;whiteSpace=wrap;html=1;aspect=fixed;" parent="1" vertex="1">
                    <mxGeometry x="497.5" y="275" width="80" height="80" as="geometry"/>
                </mxCell>
                <mxCell id="6" value="/assigned" style="ellipse;whiteSpace=wrap;html=1;aspect=fixed;flipH=0;" parent="1" vertex="1">
                    <mxGeometry x="620" y="395" width="80" height="80" as="geometry"/>
                </mxCell>
                <mxCell id="7" value="" style="endArrow=none;html=1;" parent="1" source="3" target="2" edge="1">
                    <mxGeometry width="50" height="50" relative="1" as="geometry">
                        <mxPoint x="407.5" y="365" as="sourcePoint"/>
                        <mxPoint x="457.5" y="315" as="targetPoint"/>
                    </mxGeometry>
                </mxCell>
                <mxCell id="8" value="" style="endArrow=none;html=1;" parent="1" source="5" target="2" edge="1">
                    <mxGeometry width="50" height="50" relative="1" as="geometry">
                        <mxPoint x="200.260058229062" y="302.0483424383219" as="sourcePoint"/>
                        <mxPoint x="334.73072317923857" y="207.93849377453307" as="targetPoint"/>
                    </mxGeometry>
                </mxCell>
                <mxCell id="9" value="" style="endArrow=none;html=1;" parent="1" source="4" target="5" edge="1">
                    <mxGeometry width="50" height="50" relative="1" as="geometry">
                        <mxPoint x="534.7399417709328" y="302.0483424383183" as="sourcePoint"/>
                        <mxPoint x="400.26927682076143" y="207.93849377453307" as="targetPoint"/>
                    </mxGeometry>
                </mxCell>
                <mxCell id="10" value="" style="endArrow=none;html=1;" parent="1" source="6" target="5" edge="1">
                    <mxGeometry width="50" height="50" relative="1" as="geometry">
                        <mxPoint x="482.2385609933442" y="433.56747544375094" as="sourcePoint"/>
                        <mxPoint x="542.7871379227279" y="356.45273355289146" as="targetPoint"/>
                    </mxGeometry>
                </mxCell>
                <mxCell id="11" value="/synchronize-job" style="ellipse;whiteSpace=wrap;html=1;aspect=fixed;flipH=0;" parent="1" vertex="1">
                    <mxGeometry x="7.5" y="395" width="80" height="80" as="geometry"/>
                </mxCell>
                <mxCell id="13" value="" style="endArrow=none;html=1;" parent="1" source="3" target="11" edge="1">
                    <mxGeometry width="50" height="50" relative="1" as="geometry">
                        <mxPoint x="200.260058229062" y="302.0483424383219" as="sourcePoint"/>
                        <mxPoint x="334.73072317923857" y="207.93849377453307" as="targetPoint"/>
                    </mxGeometry>
                </mxCell>
                <mxCell id="29" value="/ds0000000001" style="ellipse;whiteSpace=wrap;html=1;aspect=fixed;flipH=1;" parent="1" vertex="1">
                    <mxGeometry x="280" y="505" width="80" height="80" as="geometry"/>
                </mxCell>
                <mxCell id="30" value="" style="endArrow=none;html=1;" parent="1" source="4" target="29" edge="1">
                    <mxGeometry width="50" height="50" relative="1" as="geometry">
                        <mxPoint x="318.0165831794493" y="581.6678385883215" as="sourcePoint"/>
                        <mxPoint x="128.54415631880033" y="524.9985277842068" as="targetPoint"/>
                    </mxGeometry>
                </mxCell>
                <mxCell id="31" value="/ds0000000002" style="ellipse;whiteSpace=wrap;html=1;aspect=fixed;flipH=1;" parent="1" vertex="1">
                    <mxGeometry x="374" y="505" width="80" height="80" as="geometry"/>
                </mxCell>
                <mxCell id="32" value="" style="endArrow=none;html=1;" parent="1" source="4" target="31" edge="1">
                    <mxGeometry width="50" height="50" relative="1" as="geometry">
                        <mxPoint x="348.9386748343179" y="582.1057407174994" as="sourcePoint"/>
                        <mxPoint x="311.2589485317326" y="634.4105240483182" as="targetPoint"/>
                    </mxGeometry>
                </mxCell>
                <mxCell id="33" value="/ds0000000001" style="ellipse;whiteSpace=wrap;html=1;aspect=fixed;flipH=1;" parent="1" vertex="1">
                    <mxGeometry x="560" y="505" width="80" height="80" as="geometry"/>
                </mxCell>
                <mxCell id="34" value="" style="endArrow=none;html=1;" parent="1" source="6" target="33" edge="1">
                    <mxGeometry width="50" height="50" relative="1" as="geometry">
                        <mxPoint x="580" y="585" as="sourcePoint"/>
                        <mxPoint x="311.2589485317326" y="634.4105240483182" as="targetPoint"/>
                    </mxGeometry>
                </mxCell>
                <mxCell id="35" value="/ds0000000001" style="ellipse;whiteSpace=wrap;html=1;aspect=fixed;" parent="1" vertex="1">
                    <mxGeometry x="680" y="505" width="80" height="80" as="geometry"/>
                </mxCell>
                <mxCell id="36" value="" style="endArrow=none;html=1;" parent="1" source="6" target="35" edge="1">
                    <mxGeometry width="50" height="50" relative="1" as="geometry">
                        <mxPoint x="740" y="585" as="sourcePoint"/>
                        <mxPoint x="573.5" y="630" as="targetPoint"/>
                    </mxGeometry>
                </mxCell>
                <mxCell id="37" value="/ds0000000001" style="ellipse;whiteSpace=wrap;html=1;aspect=fixed;flipH=1;" parent="1" vertex="1">
                    <mxGeometry x="470" y="505" width="80" height="80" as="geometry"/>
                </mxCell>
                <mxCell id="38" value="" style="endArrow=none;html=1;" parent="1" source="4" target="37" edge="1">
                    <mxGeometry width="50" height="50" relative="1" as="geometry">
                        <mxPoint x="494" y="585" as="sourcePoint"/>
                        <mxPoint x="590" y="630" as="targetPoint"/>
                    </mxGeometry>
                </mxCell>
            </root>
        </mxGraphModel>
    </diagram>
</mxfile>